# xmcd CD database file
#
# Track frame offsets:
#	150
#	15325
#	29619
#	41290
#	64892
#	82337
#	113787
#	130610
#	152707
#	177357
#	191375
#	212840
#	234750
#	266095
#	281640
#
# Disc length: 4062 seconds
#
# Revision: 0
# Processed by: cddbd v1.5PL3 Copyright (c) Steve Scherf et al.
# Submitted via: CDex 1.51
#
DISCID=ca0fdc0f
DTITLE=Time Life - Essential Jazz Volume 4
DYEAR=1945
DGENRE=Jazz
TTITLE0=Song for my Father
TTITLE1=The Sidewinder
TTITLE2=Comin' Home Baby
TTITLE3=Basin Street Blues
TTITLE4=Lover Man
TTITLE5=Stairway to the Stars
TTITLE6=Corcovado
TTITLE7=I've Grown Accustomed to Her Face
TTITLE8=Every Day
TTITLE9=Smooth Sailing
TTITLE10=Stardust
TTITLE11=Bumpin On Sunset
TTITLE12=Waltz for Debby
TTITLE13=Willow Weep for Me
TTITLE14=Work Song
EXTD=YEAR: 1945
EXTT0=
EXTT1=
EXTT2=
EXTT3=
EXTT4=
EXTT5=
EXTT6=
EXTT7=
EXTT8=
EXTT9=
EXTT10=
EXTT11=
EXTT12=
EXTT13=
EXTT14=
PLAYORDER=
